<svg width="958" height="194" viewBox="0 0 958 194" fill="none" xmlns="http://www.w3.org/2000/svg">
<path d="M270.516 176.096C255.982 176.096 243.782 173.029 233.916 166.896C224.182 160.763 216.849 152.296 211.916 141.496C206.982 130.696 204.516 118.229 204.516 104.096C204.516 89.9628 206.982 77.4294 211.916 66.4961C216.982 55.5628 224.382 47.0294 234.116 40.8961C243.982 34.6294 256.182 31.4961 270.716 31.4961C281.249 31.4961 290.449 33.2294 298.316 36.6961C306.182 40.0294 312.516 44.8294 317.316 51.0961C322.249 57.2294 325.516 64.5628 327.116 73.0961H306.316C304.316 66.2961 300.249 60.8961 294.116 56.8961C287.982 52.8961 280.116 50.8961 270.516 50.8961C259.849 50.8961 251.249 53.3628 244.716 58.2961C238.316 63.2294 233.649 69.6961 230.716 77.6961C227.782 85.5628 226.316 94.0961 226.316 103.296C226.316 112.763 227.849 121.563 230.916 129.696C233.982 137.829 238.849 144.363 245.516 149.296C252.182 154.229 260.716 156.696 271.116 156.696C277.516 156.696 283.182 155.829 288.116 154.096C293.049 152.229 297.182 149.629 300.516 146.296C303.849 142.829 306.116 138.829 307.316 134.296H329.516C327.782 142.963 324.249 150.429 318.916 156.696C313.582 162.963 306.849 167.763 298.716 171.096C290.582 174.429 281.182 176.096 270.516 176.096Z" fill="white"/>
<path d="M396.722 175.696C385.789 175.696 376.522 173.496 368.922 169.096C361.322 164.563 355.522 158.229 351.522 150.096C347.655 141.963 345.722 132.563 345.722 121.896C345.722 111.096 347.722 101.696 351.722 93.6961C355.722 85.5628 361.522 79.2294 369.122 74.6961C376.722 70.0294 385.989 67.6961 396.922 67.6961C407.855 67.6961 417.122 70.0294 424.722 74.6961C432.322 79.2294 438.055 85.5628 441.922 93.6961C445.789 101.829 447.722 111.296 447.722 122.096C447.722 132.629 445.722 141.963 441.722 150.096C437.855 158.229 432.122 164.563 424.522 169.096C417.055 173.496 407.789 175.696 396.722 175.696ZM396.722 157.296C403.922 157.296 409.722 155.696 414.122 152.496C418.655 149.296 421.989 145.029 424.122 139.696C426.255 134.229 427.322 128.296 427.322 121.896C427.322 115.496 426.255 109.629 424.122 104.296C421.989 98.9628 418.655 94.6961 414.122 91.4961C409.722 88.1628 403.922 86.4961 396.722 86.4961C389.655 86.4961 383.855 88.1628 379.322 91.4961C374.789 94.6961 371.455 98.9628 369.322 104.296C367.322 109.629 366.322 115.496 366.322 121.896C366.322 128.429 367.322 134.363 369.322 139.696C371.455 145.029 374.789 149.296 379.322 152.496C383.855 155.696 389.655 157.296 396.722 157.296Z" fill="white"/>
<path d="M514.062 175.696C499.262 175.696 487.929 171.829 480.062 164.096C472.329 156.229 468.462 144.296 468.462 128.296V69.0961H489.062V127.096C489.062 133.363 489.929 138.763 491.663 143.296C493.529 147.829 496.329 151.296 500.062 153.696C503.796 156.096 508.529 157.296 514.263 157.296C520.263 157.296 525.062 156.096 528.662 153.696C532.396 151.163 535.062 147.629 536.662 143.096C538.396 138.563 539.263 133.229 539.263 127.096V69.0961H559.862V128.296C559.862 144.563 555.862 156.563 547.862 164.296C539.996 171.896 528.729 175.696 514.062 175.696Z" fill="white"/>
<path d="M584.683 174.496V69.0961H604.083L605.083 84.2961C607.749 80.1628 610.816 76.8961 614.283 74.4961C617.75 72.0961 621.549 70.3628 625.683 69.2961C629.816 68.2294 634.149 67.6961 638.683 67.6961C639.883 67.6961 641.016 67.6961 642.083 67.6961C643.149 67.6961 644.149 67.6961 645.083 67.6961V87.4961H638.683C631.083 87.4961 624.749 89.0294 619.683 92.0961C614.749 95.1628 611.083 99.4294 608.683 104.896C606.416 110.363 605.283 116.629 605.283 123.696V174.496H584.683Z" fill="white"/>
<path d="M698.106 175.696C693.173 175.696 688.24 175.229 683.306 174.296C678.373 173.363 673.773 171.696 669.506 169.296C665.24 166.896 661.64 163.696 658.706 159.696C655.773 155.563 653.906 150.496 653.106 144.496H674.106C675.173 147.696 677.04 150.296 679.706 152.296C682.506 154.296 685.573 155.763 688.906 156.696C692.373 157.629 695.773 158.096 699.106 158.096C701.106 158.096 703.306 157.963 705.706 157.696C708.24 157.429 710.64 156.829 712.906 155.896C715.173 154.963 717.04 153.629 718.506 151.896C719.973 150.029 720.706 147.563 720.706 144.496C720.706 142.096 720.04 140.096 718.706 138.496C717.506 136.896 715.773 135.629 713.506 134.696C711.373 133.629 708.773 132.829 705.706 132.296C699.706 130.963 693.24 129.696 686.306 128.496C679.506 127.163 673.506 124.896 668.306 121.696C666.44 120.496 664.773 119.163 663.306 117.696C661.84 116.096 660.573 114.296 659.506 112.296C658.44 110.296 657.64 108.163 657.106 105.896C656.573 103.629 656.306 101.163 656.306 98.4961C656.306 93.0294 657.373 88.3628 659.506 84.4961C661.773 80.6294 664.84 77.4961 668.706 75.0961C672.573 72.5628 676.973 70.6961 681.906 69.4961C686.84 68.2961 692.04 67.6961 697.506 67.6961C704.573 67.6961 710.973 68.8294 716.706 71.0961C722.44 73.3628 727.173 76.6961 730.906 81.0961C734.64 85.4961 736.84 91.0294 737.506 97.6961H718.106C717.306 94.0961 714.973 91.2294 711.106 89.0961C707.373 86.8294 702.64 85.6961 696.906 85.6961C694.906 85.6961 692.706 85.8294 690.306 86.0961C688.04 86.3628 685.84 86.9628 683.706 87.8961C681.573 88.8294 679.84 90.1628 678.506 91.8961C677.173 93.4961 676.506 95.6294 676.506 98.2961C676.506 100.829 677.106 102.963 678.306 104.696C679.64 106.429 681.506 107.829 683.906 108.896C686.44 109.963 689.306 110.829 692.506 111.496C697.04 112.563 701.906 113.563 707.106 114.496C712.44 115.429 716.773 116.429 720.106 117.496C724.506 118.696 728.24 120.429 731.306 122.696C734.506 124.963 736.906 127.829 738.506 131.296C740.24 134.763 741.106 138.963 741.106 143.896C741.106 150.296 739.84 155.563 737.306 159.696C734.773 163.696 731.373 166.896 727.106 169.296C722.973 171.696 718.306 173.363 713.106 174.296C708.04 175.229 703.04 175.696 698.106 175.696Z" fill="white"/>
<path d="M807.059 175.696C795.993 175.696 786.726 173.429 779.259 168.896C771.793 164.363 766.126 158.096 762.259 150.096C758.526 141.963 756.659 132.629 756.659 122.096C756.659 111.429 758.593 102.029 762.459 93.8961C766.459 85.7628 772.193 79.3628 779.659 74.6961C787.259 70.0294 796.393 67.6961 807.059 67.6961C815.193 67.6961 822.259 69.2294 828.259 72.2961C834.259 75.2294 839.193 79.2294 843.059 84.2961C847.059 89.3628 849.993 95.0294 851.859 101.296C853.726 107.429 854.526 113.829 854.259 120.496C854.259 121.963 854.193 123.363 854.059 124.696C853.926 126.029 853.793 127.429 853.659 128.896H777.459C777.859 134.229 779.193 139.096 781.459 143.496C783.859 147.896 787.193 151.429 791.459 154.096C795.726 156.629 800.993 157.896 807.259 157.896C810.726 157.896 814.059 157.496 817.259 156.696C820.593 155.763 823.526 154.363 826.059 152.496C828.726 150.496 830.593 147.963 831.659 144.896H852.459C850.726 151.963 847.593 157.829 843.059 162.496C838.659 167.029 833.259 170.363 826.859 172.496C820.593 174.629 813.993 175.696 807.059 175.696ZM777.859 112.496H833.859C833.726 107.296 832.526 102.696 830.259 98.6961C827.993 94.5628 824.859 91.3628 820.859 89.0961C816.859 86.6961 812.059 85.4961 806.459 85.4961C800.326 85.4961 795.193 86.7628 791.059 89.2961C787.059 91.8294 783.926 95.1628 781.659 99.2961C779.526 103.296 778.259 107.696 777.859 112.496Z" fill="white"/>
<path d="M914.903 175.696C909.97 175.696 905.036 175.229 900.103 174.296C895.17 173.363 890.57 171.696 886.303 169.296C882.036 166.896 878.436 163.696 875.503 159.696C872.57 155.563 870.703 150.496 869.903 144.496H890.903C891.97 147.696 893.836 150.296 896.503 152.296C899.303 154.296 902.37 155.763 905.703 156.696C909.17 157.629 912.57 158.096 915.903 158.096C917.903 158.096 920.103 157.963 922.503 157.696C925.036 157.429 927.436 156.829 929.703 155.896C931.97 154.963 933.836 153.629 935.303 151.896C936.77 150.029 937.503 147.563 937.503 144.496C937.503 142.096 936.836 140.096 935.503 138.496C934.303 136.896 932.57 135.629 930.303 134.696C928.17 133.629 925.57 132.829 922.503 132.296C916.503 130.963 910.036 129.696 903.103 128.496C896.303 127.163 890.303 124.896 885.103 121.696C883.236 120.496 881.57 119.163 880.103 117.696C878.636 116.096 877.37 114.296 876.303 112.296C875.236 110.296 874.436 108.163 873.903 105.896C873.37 103.629 873.103 101.163 873.103 98.4961C873.103 93.0294 874.17 88.3628 876.303 84.4961C878.57 80.6294 881.636 77.4961 885.503 75.0961C889.37 72.5628 893.77 70.6961 898.703 69.4961C903.636 68.2961 908.836 67.6961 914.303 67.6961C921.37 67.6961 927.77 68.8294 933.503 71.0961C939.236 73.3628 943.97 76.6961 947.703 81.0961C951.436 85.4961 953.636 91.0294 954.303 97.6961H934.903C934.103 94.0961 931.77 91.2294 927.903 89.0961C924.17 86.8294 919.436 85.6961 913.703 85.6961C911.703 85.6961 909.503 85.8294 907.103 86.0961C904.836 86.3628 902.636 86.9628 900.503 87.8961C898.37 88.8294 896.636 90.1628 895.303 91.8961C893.97 93.4961 893.303 95.6294 893.303 98.2961C893.303 100.829 893.903 102.963 895.103 104.696C896.436 106.429 898.303 107.829 900.703 108.896C903.236 109.963 906.103 110.829 909.303 111.496C913.836 112.563 918.703 113.563 923.903 114.496C929.236 115.429 933.57 116.429 936.903 117.496C941.303 118.696 945.036 120.429 948.103 122.696C951.303 124.963 953.703 127.829 955.303 131.296C957.036 134.763 957.903 138.963 957.903 143.896C957.903 150.296 956.636 155.563 954.103 159.696C951.57 163.696 948.17 166.896 943.903 169.296C939.77 171.696 935.103 173.363 929.903 174.296C924.836 175.229 919.836 175.696 914.903 175.696Z" fill="white"/>
<path d="M0 193.8L61.8 0H79.8L18 193.8H0Z" fill="white"/>
<path d="M53.3203 193.8L115.12 0H133.12L71.3203 193.8H53.3203Z" fill="white"/>
</svg>
